<svg xmlns="http://www.w3.org/2000/svg" width="254" height="58" viewBox="-2.83 -44.18 254.05 58.46" role="img" aria-label="openapi-testgen">
  <path fill="#3ECF9B" d="M20.33 5.11Q16.28 5.11 13.94 2.88Q11.59 0.64 11.96 -3.08L12.65 -10.07Q12.83 -11.96 12.01 -12.93Q11.18 -13.89 9.15 -13.89H3.17V-19.18H9.15Q11.18 -19.18 12.01 -20.15Q12.83 -21.11 12.65 -22.95L11.96 -30.18Q11.59 -33.81 13.94 -36Q16.28 -38.18 20.33 -38.18H23.51V-32.89H21.16Q19.46 -32.89 18.54 -32.04Q17.62 -31.19 17.71 -29.62L18.4 -22.45Q18.63 -20.1 17.18 -18.56Q15.73 -17.02 12.88 -16.65Q15.73 -16.24 17.18 -14.63Q18.63 -13.02 18.4 -10.63L17.71 -3.45Q17.57 -1.93 18.52 -1.08Q19.46 -0.23 21.16 -0.23H23.51V5.11Z"/>
  <path fill="#E7EDF4" d="M43.93 0Q40.39 0 38.3 -2.05Q36.2 -4.09 36.2 -7.59V-20.1H29.21V-25.3H36.2V-32.43H42V-25.3H52.07V-20.1H42V-7.73Q42 -6.62 42.62 -5.91Q43.24 -5.2 44.34 -5.2H51.84V0Z M69.05 0.46Q65.83 0.46 63.43 -0.78Q61.04 -2.02 59.73 -4.3Q58.42 -6.58 58.42 -9.66V-15.64Q58.42 -18.72 59.73 -21Q61.04 -23.28 63.43 -24.52Q65.83 -25.76 69.05 -25.76Q72.22 -25.76 74.59 -24.52Q76.96 -23.28 78.27 -21.05Q79.58 -18.81 79.58 -15.82V-11.22H63.94V-9.48Q63.94 -6.9 65.27 -5.59Q66.61 -4.28 69.05 -4.28Q70.84 -4.28 72.11 -4.9Q73.37 -5.52 73.6 -6.72H79.3Q78.71 -3.45 75.9 -1.49Q73.09 0.46 69.05 0.46ZM63.94 -15.82V-14.95L74.06 -15V-15.87Q74.06 -18.49 72.77 -19.92Q71.48 -21.34 69.05 -21.34Q66.52 -21.34 65.23 -19.89Q63.94 -18.45 63.94 -15.82Z M95.54 0.41Q91.03 0.41 88.41 -1.63Q85.79 -3.68 85.79 -7.18H91.45Q91.45 -5.7 92.53 -4.92Q93.61 -4.14 95.54 -4.14H97.57Q99.64 -4.14 100.76 -4.92Q101.89 -5.7 101.89 -7.18Q101.89 -8.56 101.11 -9.22Q100.33 -9.89 98.72 -10.12L92.41 -10.95Q89.38 -11.36 87.75 -13.29Q86.11 -15.23 86.11 -18.31Q86.11 -21.9 88.5 -23.8Q90.9 -25.71 95.4 -25.71H97.52Q101.75 -25.71 104.33 -23.78Q106.9 -21.85 107 -18.63H101.29Q101.25 -19.83 100.23 -20.54Q99.22 -21.25 97.52 -21.25H95.4Q93.56 -21.25 92.6 -20.49Q91.63 -19.73 91.63 -18.45Q91.63 -17.3 92.34 -16.74Q93.06 -16.19 94.44 -16.05L100.37 -15.23Q103.87 -14.81 105.64 -12.77Q107.41 -10.72 107.41 -7.27Q107.41 -3.59 104.9 -1.59Q102.4 0.41 97.57 0.41Z M126.73 0Q123.19 0 121.09 -2.05Q119 -4.09 119 -7.59V-20.1H112.01V-25.3H119V-32.43H124.8V-25.3H134.87V-20.1H124.8V-7.73Q124.8 -6.62 125.42 -5.91Q126.04 -5.2 127.14 -5.2H134.64V0Z M144.99 8.28V3.5H152.12Q154.15 3.5 155.25 2.42Q156.35 1.33 156.35 -0.51V-2.02L156.45 -5.98Q155.66 -3.86 153.94 -2.69Q152.21 -1.52 149.73 -1.52Q145.87 -1.52 143.59 -4.12Q141.31 -6.72 141.31 -11.18V-16.1Q141.31 -20.52 143.59 -23.14Q145.87 -25.76 149.73 -25.76Q152.21 -25.76 153.94 -24.59Q155.66 -23.41 156.45 -21.25V-25.3H162.06V-0.37Q162.06 3.63 159.41 5.96Q156.77 8.28 152.21 8.28ZM151.66 -6.44Q153.87 -6.44 155.09 -7.75Q156.31 -9.06 156.31 -11.41V-15.82Q156.31 -18.17 155.09 -19.48Q153.87 -20.79 151.66 -20.79Q149.45 -20.79 148.26 -19.53Q147.06 -18.26 147.06 -16.01V-11.22Q147.06 -8.97 148.26 -7.71Q149.45 -6.44 151.66 -6.44Z M179.45 0.46Q176.23 0.46 173.83 -0.78Q171.44 -2.02 170.13 -4.3Q168.82 -6.58 168.82 -9.66V-15.64Q168.82 -18.72 170.13 -21Q171.44 -23.28 173.83 -24.52Q176.23 -25.76 179.45 -25.76Q182.62 -25.76 184.99 -24.52Q187.36 -23.28 188.67 -21.05Q189.98 -18.81 189.98 -15.82V-11.22H174.34V-9.48Q174.34 -6.9 175.67 -5.59Q177.01 -4.28 179.45 -4.28Q181.24 -4.28 182.5 -4.9Q183.77 -5.52 184 -6.72H189.7Q189.11 -3.45 186.3 -1.49Q183.49 0.46 179.45 0.46ZM174.34 -15.82V-14.95L184.46 -15V-15.87Q184.46 -18.49 183.17 -19.92Q181.88 -21.34 179.45 -21.34Q176.92 -21.34 175.63 -19.89Q174.34 -18.45 174.34 -15.82Z M196.74 0V-25.3H202.35V-20.56Q202.81 -22.95 204.61 -24.36Q206.4 -25.76 209.16 -25.76Q212.89 -25.76 215.12 -23.28Q217.35 -20.79 217.35 -16.61V0H211.6V-15.92Q211.6 -18.26 210.38 -19.53Q209.16 -20.79 207.09 -20.79Q204.93 -20.79 203.71 -19.5Q202.49 -18.22 202.49 -15.82V0Z"/>
  <path fill="#3ECF9B" d="M224.89 5.11V-0.23H227.24Q228.94 -0.23 229.91 -1.08Q230.87 -1.93 230.69 -3.45L229.77 -10.63Q229.49 -12.97 230.87 -14.61Q232.25 -16.24 234.74 -16.65Q232.25 -17.07 230.87 -18.58Q229.49 -20.1 229.77 -22.45L230.69 -29.62Q230.87 -31.19 229.91 -32.04Q228.94 -32.89 227.24 -32.89H224.89V-38.18H228.07Q230.74 -38.18 232.74 -37.19Q234.74 -36.2 235.73 -34.41Q236.72 -32.61 236.44 -30.18L235.52 -22.95Q235.06 -19.18 239.06 -19.18H245.23V-13.89H239.06Q235.06 -13.89 235.52 -10.07L236.44 -3.08Q236.72 -0.6 235.73 1.24Q234.74 3.08 232.76 4.09Q230.78 5.11 228.07 5.11Z"/>
</svg>
